<svg width="1214" height="1214" viewBox="0 0 1214 1214" fill="none" xmlns="http://www.w3.org/2000/svg">
<path d="M0 1213.37V750.5L167.797 924.008L485.13 606.686L167.797 289.354L0 462.873V0.076L4.07143 0L462.797 0.076L289.289 167.873L606.61 485.195L923.943 167.873L750.424 0.076H1213.23L1213.3 4.14743L1213.23 462.873L1045.43 289.354L728.102 606.686L1045.43 924.008L1213.23 750.5L1213.3 1213.31H750.424L923.943 1045.54L606.61 728.178L289.289 1045.54L462.797 1213.34L0 1213.37ZM770.553 1205.14L1205.15 1205.21L1205.14 770.629L1045.54 935.658L1042.6 932.726L716.571 606.686L745.886 577.372L1045.54 277.715L1205.14 442.743V8.15371L770.553 8.21886L935.582 167.819L932.65 170.761L606.61 496.714L277.639 167.743L442.667 8.21886L8.07771 8.14286L8.14286 442.743L167.743 277.715L170.685 280.646L496.638 606.686L467.324 636.001L167.667 935.658L8.14286 770.629L8.06686 1205.23L442.667 1205.14L277.639 1045.6L280.57 1042.65L606.61 716.669L635.925 745.983L935.582 1045.64L770.553 1205.14Z" fill="#F1E7DF"/>
<path d="M770.553 1205.14L1205.15 1205.21L1205.14 770.629L1045.54 935.658L1042.6 932.726L716.571 606.686L745.886 577.372L1045.54 277.715L1205.14 442.743V8.15371L770.553 8.21886L935.582 167.819L932.65 170.761L606.61 496.714L277.639 167.743L442.667 8.21886L8.07771 8.14286L8.14286 442.743L167.743 277.715L170.685 280.646L496.638 606.686L467.324 636.001L167.667 935.658L8.14286 770.629L8.06686 1205.23L442.667 1205.14L277.639 1045.6L280.57 1042.65L606.61 716.669L635.925 745.983L935.582 1045.64L770.553 1205.14Z" fill="#F1E7DF"/>
</svg>
