<svg width="41" height="41" viewBox="0 0 41 41" fill="none" xmlns="http://www.w3.org/2000/svg">
<rect width="41" height="41" rx="5" fill="#292929" fill-opacity="0.572549"/>
<path d="M31 29C30.5545 29.002 30.1153 29.1046 29.715 29.3L25.415 25H22V27H24.586L28.301 30.715C28.1055 31.1153 28.0026 31.5545 28 32C28 32.5933 28.1759 33.1734 28.5056 33.6667C28.8352 34.1601 29.3038 34.5446 29.8519 34.7716C30.4001 34.9987 31.0033 35.0581 31.5853 34.9424C32.1672 34.8266 32.7018 34.5409 33.1213 34.1213C33.5409 33.7018 33.8266 33.1672 33.9424 32.5853C34.0581 32.0033 33.9987 31.4001 33.7716 30.852C33.5446 30.3038 33.1601 29.8352 32.6667 29.5056C32.1734 29.1759 31.5933 29 31 29ZM31 33C30.8022 33 30.6089 32.9414 30.4444 32.8315C30.28 32.7216 30.1518 32.5654 30.0761 32.3827C30.0004 32.2 29.9806 31.9989 30.0192 31.8049C30.0578 31.6109 30.153 31.4327 30.2929 31.2929C30.4327 31.153 30.6109 31.0578 30.8049 31.0192C30.9989 30.9806 31.2 31.0004 31.3827 31.0761C31.5654 31.1518 31.7216 31.28 31.8315 31.4444C31.9414 31.6089 32 31.8022 32 32C32 32.2652 31.8946 32.5196 31.7071 32.7071C31.5196 32.8946 31.2652 33 31 33ZM31 18C30.3816 18.0018 29.7789 18.1951 29.2747 18.5532C28.7704 18.9113 28.3895 19.4167 28.184 20H22V22H28.184C28.3682 22.5172 28.6911 22.9738 29.1172 23.3199C29.5434 23.666 30.0565 23.8883 30.6005 23.9625C31.1444 24.0367 31.6983 23.96 32.2016 23.7407C32.7049 23.5214 33.1383 23.168 33.4543 22.7191C33.7704 22.2702 33.9569 21.743 33.9936 21.1952C34.0304 20.6475 33.9158 20.1001 33.6625 19.6131C33.4091 19.126 33.0268 18.7179 32.5573 18.4334C32.0877 18.149 31.549 17.999 31 18ZM31 22C30.8022 22 30.6089 21.9414 30.4444 21.8315C30.28 21.7216 30.1518 21.5654 30.0761 21.3827C30.0004 21.2 29.9806 20.9989 30.0192 20.8049C30.0578 20.6109 30.153 20.4327 30.2929 20.2929C30.4327 20.153 30.6109 20.0578 30.8049 20.0192C30.9989 19.9806 31.2 20.0004 31.3827 20.0761C31.5654 20.1518 31.7216 20.28 31.8315 20.4444C31.9414 20.6089 32 20.8022 32 21C32 21.2652 31.8946 21.5196 31.7071 21.7071C31.5196 21.8946 31.2652 22 31 22ZM31 7C30.2046 7.0008 29.442 7.31712 28.8796 7.87956C28.3171 8.442 28.0008 9.2046 28 10C28.0034 10.4791 28.1228 10.9502 28.348 11.373L24.596 15H22V17H25.404L29.804 12.748C30.2127 12.9262 30.6561 13.0111 31.1017 12.9964C31.5474 12.9817 31.9841 12.8677 32.3802 12.6629C32.7763 12.4581 33.1217 12.1676 33.3914 11.8124C33.661 11.4573 33.848 11.0465 33.9389 10.6099C34.0297 10.1734 34.022 9.72206 33.9165 9.28884C33.8109 8.85562 33.61 8.4514 33.3285 8.1056C33.047 7.75981 32.6919 7.48113 32.2891 7.28988C31.8863 7.09862 31.4459 6.99959 31 7ZM31 11C30.8022 11 30.6089 10.9414 30.4444 10.8315C30.28 10.7216 30.1518 10.5654 30.0761 10.3827C30.0004 10.2 29.9806 9.99889 30.0192 9.80491C30.0578 9.61093 30.153 9.43275 30.2929 9.29289C30.4327 9.15304 30.6109 9.0578 30.8049 9.01922C30.9989 8.98063 31.2 9.00043 31.3827 9.07612C31.5654 9.15181 31.7216 9.27998 31.8315 9.44443C31.9414 9.60888 32 9.80222 32 10C32 10.2652 31.8946 10.5196 31.7071 10.7071C31.5196 10.8946 31.2652 11 31 11Z" fill="#5E43A3"/>
<path d="M22 11H24V9H22C21.4301 9.0019 20.8673 9.12629 20.3497 9.36473C19.8321 9.60318 19.3718 9.9501 19 10.382C18.6282 9.9501 18.1679 9.60318 17.6503 9.36473C17.1327 9.12629 16.5699 9.0019 16 9H15C12.6139 9.00265 10.3262 9.95171 8.63896 11.639C6.95171 13.3262 6.00265 15.6139 6 18V24C6.00265 26.3861 6.95171 28.6738 8.63896 30.361C10.3262 32.0483 12.6139 32.9974 15 33H16C16.5699 32.9981 17.1327 32.8737 17.6503 32.6353C18.1679 32.3968 18.6282 32.0499 19 31.618C19.3718 32.0499 19.8321 32.3968 20.3497 32.6353C20.8673 32.8737 21.4301 32.9981 22 33H24V31H22C21.4697 30.9995 20.9613 30.7886 20.5864 30.4136C20.2114 30.0387 20.0005 29.5303 20 29V13C20.0005 12.4697 20.2114 11.9613 20.5864 11.5864C20.9613 11.2114 21.4697 11.0005 22 11ZM16 31H15C13.3184 30.997 11.6941 30.3892 10.4236 29.2876C9.15309 28.186 8.32125 26.6642 8.08 25H10V23H8V19H11C11.7954 18.9992 12.558 18.6829 13.1204 18.1204C13.6829 17.558 13.9992 16.7954 14 16V14H12V16C12 16.2652 11.8946 16.5196 11.7071 16.7071C11.5196 16.8946 11.2652 17 11 17H8.08C8.32125 15.3358 9.15309 13.814 10.4236 12.7124C11.6941 11.6108 13.3184 11.003 15 11H16C16.5303 11.0005 17.0387 11.2114 17.4136 11.5864C17.7886 11.9613 17.9995 12.4697 18 13V17H16V19H18V23H16C15.2046 23.0008 14.442 23.3171 13.8796 23.8796C13.3171 24.442 13.0008 25.2046 13 26V28H15V26C15 25.7348 15.1054 25.4804 15.2929 25.2929C15.4804 25.1054 15.7348 25 16 25H18V29C17.9995 29.5303 17.7886 30.0387 17.4136 30.4136C17.0387 30.7886 16.5303 30.9995 16 31Z" fill="#5E43A3"/>
</svg>
