<svg width="41" height="41" viewBox="0 0 41 41" fill="none" xmlns="http://www.w3.org/2000/svg">
<rect width="41" height="41" rx="5" fill="#292929" fill-opacity="0.572549"/>
<path d="M20.0801 15.0801C18.8934 15.0801 17.7334 15.432 16.7467 16.0913C15.76 16.7506 14.991 17.6877 14.5369 18.784C14.0827 19.8804 13.9639 21.0868 14.1954 22.2507C14.4269 23.4146 14.9984 24.4837 15.8375 25.3228C16.6766 26.1619 17.7457 26.7333 18.9096 26.9648C20.0735 27.1964 21.2799 27.0775 22.3762 26.6234C23.4726 26.1693 24.4097 25.4003 25.069 24.4136C25.7282 23.4269 26.0801 22.2668 26.0801 21.0801C26.0785 19.4893 25.4458 17.9642 24.3209 16.8393C23.1961 15.7145 21.6709 15.0818 20.0801 15.0801ZM20.0801 25.0801C19.289 25.0801 18.5157 24.8455 17.8579 24.406C17.2001 23.9665 16.6874 23.3418 16.3846 22.6109C16.0819 21.88 16.0027 21.0757 16.157 20.2998C16.3113 19.5239 16.6923 18.8111 17.2517 18.2517C17.8111 17.6923 18.5239 17.3113 19.2998 17.157C20.0757 17.0027 20.88 17.0819 21.6109 17.3846C22.3418 17.6874 22.9665 18.2001 23.406 18.8579C23.8455 19.5157 24.0801 20.289 24.0801 21.0801C24.0801 22.141 23.6587 23.1584 22.9086 23.9086C22.1584 24.6587 21.141 25.0801 20.0801 25.0801ZM31.0801 21.3501C31.0851 21.1701 31.0851 20.9901 31.0801 20.8101L32.9451 18.4801C33.0429 18.3578 33.1106 18.2142 33.1427 18.0609C33.1749 17.9076 33.1706 17.7489 33.1301 17.5976C32.8244 16.4484 32.367 15.3449 31.7701 14.3164C31.692 14.1818 31.5835 14.0673 31.4533 13.982C31.3231 13.8967 31.1748 13.843 31.0201 13.8251L28.0551 13.4951C27.9318 13.3651 27.8068 13.2401 27.6801 13.1201L27.3301 10.1476C27.3121 9.9929 27.2582 9.84451 27.1727 9.7143C27.0872 9.58408 26.9725 9.47565 26.8376 9.39764C25.8087 8.80182 24.7053 8.34493 23.5564 8.03889C23.405 7.99863 23.2462 7.99451 23.0929 8.02687C22.9397 8.05922 22.7961 8.12713 22.6739 8.22514L20.3501 10.0801H19.8101L17.4801 8.21889C17.3578 8.1211 17.2142 8.05341 17.0609 8.02127C16.9076 7.98914 16.7489 7.99346 16.5976 8.03389C15.4486 8.34017 14.3452 8.79749 13.3164 9.39389C13.1818 9.47204 13.0673 9.58054 12.982 9.71075C12.8967 9.84095 12.843 9.98926 12.8251 10.1439L12.4951 13.1139C12.3651 13.2381 12.2401 13.3631 12.1201 13.4889L9.14764 13.8301C8.9929 13.8481 8.84451 13.902 8.7143 13.9875C8.58408 14.0731 8.47565 14.1878 8.39764 14.3226C7.80182 15.3516 7.34493 16.4549 7.03889 17.6039C6.99863 17.7553 6.99451 17.914 7.02687 18.0673C7.05922 18.2206 7.12713 18.3642 7.22514 18.4864L9.08014 20.8101V21.3501L7.21889 23.6801C7.1211 23.8025 7.05341 23.9461 7.02127 24.0993C6.98914 24.2526 6.99346 24.4113 7.03389 24.5626C7.33962 25.7119 7.79697 26.8153 8.39389 27.8439C8.47204 27.9785 8.58054 28.093 8.71075 28.1783C8.84095 28.2636 8.98926 28.3173 9.14388 28.3351L12.1089 28.6651C12.2331 28.7951 12.3581 28.9201 12.4839 29.0401L12.8301 32.0126C12.8481 32.1674 12.902 32.3158 12.9875 32.446C13.0731 32.5762 13.1878 32.6846 13.3226 32.7626C14.3516 33.3585 15.4549 33.8153 16.6039 34.1214C16.7553 34.1616 16.914 34.1658 17.0673 34.1334C17.2206 34.1011 17.3642 34.0331 17.4864 33.9351L19.8101 32.0801C19.9901 32.0851 20.1701 32.0851 20.3501 32.0801L22.6801 33.9451C22.8025 34.0429 22.9461 34.1106 23.0993 34.1427C23.2526 34.1749 23.4113 34.1706 23.5626 34.1301C24.7119 33.8244 25.8153 33.367 26.8439 32.7701C26.9785 32.692 27.093 32.5835 27.1783 32.4533C27.2636 32.3231 27.3173 32.1748 27.3351 32.0201L27.6651 29.0551C27.7951 28.9318 27.9201 28.8068 28.0401 28.6801L31.0126 28.3301C31.1674 28.3121 31.3158 28.2582 31.446 28.1727C31.5762 28.0872 31.6846 27.9725 31.7626 27.8376C32.3585 26.8087 32.8153 25.7053 33.1214 24.5564C33.1616 24.405 33.1658 24.2462 33.1334 24.0929C33.1011 23.9397 33.0331 23.7961 32.9351 23.6739L31.0801 21.3501ZM29.0676 20.5376C29.0889 20.899 29.0889 21.2613 29.0676 21.6226C29.0527 21.87 29.1303 22.1141 29.2851 22.3076L31.0589 24.5239C30.8554 25.1707 30.5947 25.7982 30.2801 26.3989L27.4551 26.7189C27.2091 26.7462 26.982 26.8638 26.8176 27.0489C26.577 27.3195 26.3207 27.5758 26.0501 27.8164C25.865 27.9807 25.7474 28.2079 25.7201 28.4539L25.4064 31.2764C24.8058 31.5911 24.1783 31.8518 23.5314 32.0551L21.3139 30.2814C21.1364 30.1396 20.916 30.0625 20.6889 30.0626H20.6289C20.2675 30.0839 19.9052 30.0839 19.5439 30.0626C19.2965 30.0477 19.0524 30.1253 18.8589 30.2801L16.6364 32.0551C15.9896 31.8516 15.3621 31.591 14.7614 31.2764L14.4414 28.4551C14.4141 28.2091 14.2965 27.982 14.1114 27.8176C13.8408 27.577 13.5845 27.3207 13.3439 27.0501C13.1796 26.865 12.9524 26.7474 12.7064 26.7201L9.88389 26.4051C9.56913 25.8045 9.30851 25.177 9.10514 24.5301L10.8789 22.3126C11.0338 22.1191 11.1113 21.875 11.0964 21.6276C11.0751 21.2663 11.0751 20.904 11.0964 20.5426C11.1113 20.2952 11.0338 20.0511 10.8789 19.8576L9.10514 17.6364C9.30867 16.9896 9.56927 16.3621 9.88389 15.7614L12.7051 15.4414C12.9512 15.4141 13.1783 15.2965 13.3426 15.1114C13.5832 14.8408 13.8395 14.5845 14.1101 14.3439C14.296 14.1794 14.414 13.9518 14.4414 13.7051L14.7551 10.8839C15.3558 10.5691 15.9832 10.3085 16.6301 10.1051L18.8476 11.8789C19.0411 12.0338 19.2852 12.1113 19.5326 12.0964C19.894 12.0751 20.2563 12.0751 20.6176 12.0964C20.865 12.1113 21.1091 12.0338 21.3026 11.8789L23.5239 10.1051C24.1707 10.3087 24.7982 10.5693 25.3989 10.8839L25.7189 13.7051C25.7462 13.9512 25.8638 14.1783 26.0489 14.3426C26.3195 14.5832 26.5758 14.8395 26.8164 15.1101C26.9807 15.2952 27.2079 15.4128 27.4539 15.4401L30.2764 15.7539C30.5911 16.3545 30.8518 16.982 31.0551 17.6289L29.2814 19.8464C29.125 20.0415 29.0474 20.2881 29.0639 20.5376H29.0676Z" fill="#5E43A3"/>
</svg>
