<svg width="41" height="41" viewBox="0 0 41 41" fill="none" xmlns="http://www.w3.org/2000/svg">
<rect width="41" height="41" rx="5" fill="#292929" fill-opacity="0.572549"/>
<path d="M32.7688 12.8175L27.1825 7.23245C26.7137 6.76378 26.0779 6.50049 25.415 6.50049C24.7521 6.50049 24.1163 6.76378 23.6475 7.23245L8.23251 22.6462C7.99957 22.8777 7.81488 23.1532 7.68914 23.4566C7.56341 23.76 7.49912 24.0853 7.50001 24.4137V30C7.50001 30.663 7.7634 31.2989 8.23224 31.7677C8.70108 32.2366 9.33697 32.5 10 32.5H31C31.3978 32.5 31.7794 32.3419 32.0607 32.0606C32.342 31.7793 32.5 31.3978 32.5 31C32.5 30.6021 32.342 30.2206 32.0607 29.9393C31.7794 29.658 31.3978 29.5 31 29.5H19.625L32.7688 16.3537C33.001 16.1215 33.1853 15.8459 33.311 15.5425C33.4367 15.2391 33.5014 14.914 33.5014 14.5856C33.5014 14.2572 33.4367 13.932 33.311 13.6286C33.1853 13.3253 33.001 13.0496 32.7688 12.8175ZM15.375 29.5H10.5V24.625L21 14.125L25.875 19L15.375 29.5ZM28 16.875L23.125 12L25.4175 9.70745L30.2925 14.5825L28 16.875Z" fill="#F1E7DF"/>
</svg>
