<svg width="852" height="852" viewBox="0 0 852 852" fill="none" xmlns="http://www.w3.org/2000/svg">
<g clip-path="url(#clip0_1013_85)">
<path d="M150.385 737.884L174.177 609.73C174.576 607.575 174.544 605.359 174.084 603.216C173.622 601.073 172.739 599.043 171.489 597.244C170.238 595.444 168.643 593.913 166.796 592.739C164.95 591.565 162.89 590.77 160.735 590.401L32.5858 568.915C29.6476 568.42 26.8983 567.135 24.6299 565.197C22.3615 563.259 20.6587 560.741 19.7028 557.91C18.7469 555.079 18.5733 552.041 19.2007 549.119C19.828 546.197 21.2328 543.501 23.2657 541.316L112.881 445.213C114.37 443.619 115.53 441.745 116.293 439.699C117.055 437.652 117.405 435.474 117.321 433.293C117.238 431.109 116.723 428.965 115.807 426.984C114.891 425.002 113.591 423.222 111.984 421.748L16.2759 334.14C14.0946 332.132 12.4923 329.572 11.6373 326.73C10.7823 323.886 10.7062 320.865 11.4166 317.982C12.127 315.099 13.5979 312.462 15.6749 310.345C17.7521 308.23 20.3584 306.713 23.2209 305.956L150.697 272.648C154.908 271.538 158.511 268.802 160.718 265.039C162.926 261.274 163.56 256.788 162.482 252.555L129.997 126.155C129.268 123.288 129.32 120.278 130.146 117.437C130.971 114.597 132.542 112.031 134.692 110.006C136.843 107.981 139.496 106.573 142.375 105.927C145.253 105.28 148.251 105.421 151.057 106.332L275.442 146.788C279.572 148.127 284.062 147.778 287.937 145.817C291.813 143.856 294.761 140.442 296.143 136.315L337.634 11.3075C338.563 8.49452 340.232 5.98462 342.461 4.0415C344.691 2.09837 347.403 0.793761 350.309 0.264865C353.215 -0.264031 356.211 0.0022908 358.98 1.0358C361.747 2.06932 364.187 3.83188 366.042 6.13824L447.592 107.231C448.944 108.93 450.62 110.341 452.522 111.384C454.423 112.427 456.512 113.08 458.669 113.306C460.824 113.532 463.002 113.326 465.077 112.7C467.153 112.073 469.083 111.04 470.757 109.659L572.784 26.3208C575.085 24.4013 577.866 23.1485 580.826 22.6974C583.785 22.2464 586.811 22.6142 589.577 23.7614C592.344 24.9084 594.745 26.7912 596.524 29.2067C598.301 31.6221 599.389 34.4789 599.668 37.4686L613.11 166.7C613.332 168.881 613.986 170.994 615.031 172.917C616.077 174.842 617.494 176.537 619.2 177.906C620.906 179.274 622.867 180.289 624.967 180.888C627.069 181.488 629.267 181.661 631.436 181.399L761.064 165.891C764.024 165.533 767.025 165.988 769.747 167.209C772.468 168.428 774.809 170.369 776.517 172.82C778.223 175.272 779.235 178.144 779.442 181.127C779.648 184.112 779.041 187.095 777.687 189.76L718.721 306.631C717.713 308.593 717.106 310.739 716.937 312.941C716.768 315.143 717.039 317.357 717.737 319.452C718.434 321.546 719.543 323.479 720.997 325.138C722.451 326.795 724.221 328.145 726.204 329.106L842.703 385.877C845.38 387.174 847.656 389.174 849.291 391.663C850.924 394.154 851.856 397.041 851.984 400.021C852.113 402.999 851.434 405.957 850.022 408.581C848.608 411.203 846.513 413.393 843.958 414.916L730.953 482.341C729.088 483.451 727.462 484.921 726.165 486.665C724.868 488.409 723.928 490.394 723.4 492.504C722.871 494.613 722.764 496.807 723.083 498.959C723.403 501.11 724.144 503.178 725.262 505.042L791.444 616.473C792.96 619.014 793.77 621.916 793.787 624.878C793.804 627.84 793.028 630.752 791.54 633.31C790.053 635.869 787.907 637.979 785.328 639.421C782.75 640.864 779.833 641.585 776.882 641.509L645.595 637.779C641.256 637.658 637.046 639.262 633.881 642.243C630.717 645.225 628.855 649.34 628.703 653.692L623.998 784.767C623.9 787.726 623.01 790.603 621.421 793.098C619.833 795.594 617.603 797.613 614.968 798.946C612.334 800.28 609.389 800.877 606.444 800.675C603.501 800.474 600.664 799.482 598.234 797.802L491.234 723.994C487.641 721.529 483.221 720.591 478.94 721.382C474.66 722.174 470.864 724.631 468.383 728.219L393.51 836.818C391.82 839.256 389.508 841.192 386.816 842.424C384.124 843.656 381.152 844.139 378.209 843.822C375.267 843.504 372.465 842.399 370.095 840.62C367.726 838.843 365.878 836.459 364.743 833.718L315.454 713.7C314.636 711.674 313.422 709.832 311.887 708.28C310.35 706.729 308.523 705.499 306.508 704.663C304.495 703.827 302.335 703.399 300.156 703.407C297.976 703.415 295.82 703.859 293.812 704.711L173.101 756.089C170.36 757.286 167.343 757.71 164.379 757.315C161.414 756.921 158.613 755.724 156.277 753.851C153.94 751.979 152.157 749.502 151.118 746.689C150.08 743.875 149.826 740.831 150.385 737.884Z" fill="#F1E7DF"/>
</g>
<defs>
<clipPath id="clip0_1013_85">
<rect width="852" height="852" fill="white"/>
</clipPath>
</defs>
</svg>
