<svg width="195" height="223" viewBox="0 0 195 223" fill="none" xmlns="http://www.w3.org/2000/svg">
<mask id="path-1-inside-1_838_5260" fill="white">
<path d="M0 5C0 2.23858 2.23858 0 5 0H195V289C195 291.761 192.761 294 190 294H0V5Z"/>
</mask>
<path d="M0 5C0 2.23858 2.23858 0 5 0H195V289C195 291.761 192.761 294 190 294H0V5Z" fill="#1B1B1B"/>
<path d="M-1 5C-1 1.68629 1.68629 -1 5 -1H195V1H5C2.79086 1 1 2.79086 1 5H-1ZM195 294H0H195ZM-1 294V5C-1 1.68629 1.68629 -1 5 -1V1C2.79086 1 1 2.79086 1 5V294H-1ZM195 0V294V0Z" fill="#282828" mask="url(#path-1-inside-1_838_5260)"/>
<mask id="path-3-inside-2_838_5260" fill="white">
<path d="M77 107C77 104.239 79.2386 102 82 102H220V294H77V107Z"/>
</mask>
<path d="M77 107C77 104.239 79.2386 102 82 102H220V294H77V107Z" fill="#181818"/>
<path d="M76 107C76 103.686 78.6863 101 82 101H220V103H82C79.7909 103 78 104.791 78 107H76ZM220 294H77H220ZM76 294V107C76 103.686 78.6863 101 82 101V103C79.7909 103 78 104.791 78 107V294H76ZM220 102V294V102Z" fill="#282828" mask="url(#path-3-inside-2_838_5260)"/>
<path d="M175.975 145L177.335 141.425H178.24L179.61 145H178.625L178.395 144.255H177.17L176.94 145H175.975ZM177.375 143.57H178.195L177.79 142.25H177.78L177.375 143.57ZM182.049 145.08C181.679 145.08 181.409 144.88 181.309 144.745H181.299V145H180.499V141.425H181.299V142.695H181.309C181.409 142.56 181.679 142.36 182.049 142.36C182.729 142.36 183.164 142.88 183.164 143.72C183.164 144.56 182.729 145.08 182.049 145.08ZM181.314 143.72C181.314 144.22 181.504 144.48 181.829 144.48C182.154 144.48 182.344 144.22 182.344 143.72C182.344 143.22 182.154 142.96 181.829 142.96C181.504 142.96 181.314 143.22 181.314 143.72ZM185.452 145.085C184.607 145.085 184.092 144.535 184.092 143.725C184.092 142.92 184.607 142.355 185.467 142.355C186.312 142.355 186.827 142.905 186.827 143.71C186.827 144.52 186.312 145.085 185.452 145.085ZM184.902 143.72C184.902 144.215 185.102 144.485 185.462 144.485C185.817 144.485 186.017 144.215 186.017 143.72C186.017 143.225 185.817 142.955 185.462 142.955C185.102 142.955 184.902 143.225 184.902 143.72ZM188.671 145.08C188.176 145.08 187.841 144.755 187.841 144.17V142.44H188.641V143.915C188.641 144.3 188.776 144.43 189.041 144.43C189.346 144.43 189.521 144.275 189.521 143.92V142.44H190.321V145H189.521V144.63H189.511C189.376 144.865 189.126 145.08 188.671 145.08ZM192.466 145.05C191.906 145.05 191.666 144.795 191.666 144.17V143.04H191.311V142.44H191.666V141.725H192.466V142.44H192.911V143.04H192.466V144.15C192.466 144.425 192.571 144.45 192.726 144.45C192.801 144.45 192.846 144.445 192.941 144.43V144.995C192.771 145.035 192.626 145.05 192.466 145.05Z" fill="#ACACAC"/>
<path d="M150.3 145V141.425H151.2V142.825H152.425V141.425H153.325V145H152.425V143.56H151.2V145H150.3ZM155.715 145.085C154.87 145.085 154.355 144.535 154.355 143.725C154.355 142.92 154.87 142.355 155.73 142.355C156.575 142.355 157.09 142.905 157.09 143.71C157.09 144.52 156.575 145.085 155.715 145.085ZM155.165 143.72C155.165 144.215 155.365 144.485 155.725 144.485C156.08 144.485 156.28 144.215 156.28 143.72C156.28 143.225 156.08 142.955 155.725 142.955C155.365 142.955 155.165 143.225 155.165 143.72ZM159.699 143.525C159.699 143.14 159.619 143.01 159.334 143.01C159.084 143.01 158.919 143.165 158.919 143.52V145H158.119V142.44H158.919V142.81H158.929C159.064 142.575 159.344 142.36 159.729 142.36C160.064 142.36 160.299 142.545 160.399 142.81H160.409C160.629 142.555 160.854 142.36 161.269 142.36C161.784 142.36 162.089 142.685 162.089 143.27V145H161.279V143.525C161.279 143.14 161.199 143.01 160.914 143.01C160.659 143.01 160.499 143.165 160.499 143.52V145H159.699V143.525ZM164.434 145.085C163.604 145.085 163.104 144.52 163.104 143.72C163.104 142.97 163.574 142.355 164.434 142.355C165.304 142.355 165.744 142.87 165.744 143.815V143.935H163.904C163.904 144.29 164.154 144.485 164.454 144.485C164.739 144.485 164.859 144.355 164.909 144.225H165.724C165.579 144.745 165.154 145.085 164.434 145.085ZM163.909 143.44H164.939C164.939 143.11 164.744 142.935 164.434 142.935C164.129 142.935 163.929 143.11 163.909 143.44Z" fill="#ACACAC"/>
<mask id="path-7-inside-3_838_5260" fill="white">
<path d="M0 5C0 2.23858 2.23858 0 5 0H33V294H0V5Z"/>
</mask>
<path d="M0 5C0 2.23858 2.23858 0 5 0H33V294H0V5Z" fill="#1F1F1F"/>
<path d="M0 0H33H0ZM33 294H0H33ZM-1 294V6C-1 2.68629 1.68629 0 5 0C2.79086 0 1 2.23858 1 5V294H-1ZM34 0V294H32V0H34Z" fill="#282828" mask="url(#path-7-inside-3_838_5260)"/>
<mask id="path-9-inside-4_838_5260" fill="white">
<path d="M0 5C0 2.23858 2.23858 0 5 0H195V24H0V5Z"/>
</mask>
<path d="M0 5C0 2.23858 2.23858 0 5 0H195V24H0V5Z" fill="#1F1F1F"/>
<path d="M-1 5C-1 1.68629 1.68629 -1 5 -1H195V1H5C2.79086 1 1 2.79086 1 5H-1ZM195 25H-1L1 23H195V25ZM-1 25V5C-1 1.68629 1.68629 -1 5 -1V1C2.79086 1 1 2.79086 1 5V23L-1 25ZM195 0V24V0Z" fill="#282828" mask="url(#path-9-inside-4_838_5260)"/>
<mask id="path-11-inside-5_838_5260" fill="white">
<path d="M77 107C77 104.239 79.2386 102 82 102H220V126H77V107Z"/>
</mask>
<path d="M77 107C77 104.239 79.2386 102 82 102H220V126H77V107Z" fill="#1F1F1F"/>
<path d="M76 107C76 103.686 78.6863 101 82 101H220V103H82C79.7909 103 78 104.791 78 107H76ZM220 127H76L78 125H220V127ZM76 127V107C76 103.686 78.6863 101 82 101V103C79.7909 103 78 104.791 78 107V125L76 127ZM220 102V126V102Z" fill="#282828" mask="url(#path-11-inside-5_838_5260)"/>
<path d="M16 13C16 13.2652 16.1054 13.5196 16.2929 13.7071C16.4804 13.8946 16.7348 14 17 14C17.2652 14 17.5196 13.8946 17.7071 13.7071C17.8946 13.5196 18 13.2652 18 13C18 12.7348 17.8946 12.4804 17.7071 12.2929C17.5196 12.1054 17.2652 12 17 12C16.7348 12 16.4804 12.1054 16.2929 12.2929C16.1054 12.4804 16 12.7348 16 13Z" stroke="#7A7A7A" stroke-width="0.5" stroke-linecap="round" stroke-linejoin="round"/>
<path d="M14 11C14 10.7348 14.1054 10.4804 14.2929 10.2929C14.4804 10.1054 14.7348 10 15 10H17C17.2652 10 17.5196 10.1054 17.7071 10.2929C17.8946 10.4804 18 10.7348 18 11C18 11.2652 17.8946 11.5196 17.7071 11.7071C17.5196 11.8946 17.2652 12 17 12H15C14.7348 12 14.4804 11.8946 14.2929 11.7071C14.1054 11.5196 14 11.2652 14 11Z" stroke="#7A7A7A" stroke-width="0.5" stroke-linecap="round" stroke-linejoin="round"/>
<path d="M15 12C14.7348 12 14.4804 12.1054 14.2929 12.2929C14.1054 12.4804 14 12.7348 14 13C14 13.2652 14.1054 13.5196 14.2929 13.7071C14.4804 13.8946 14.7348 14 15 14M15 14H16M15 14C14.8022 14 14.6089 14.0586 14.4444 14.1685C14.28 14.2784 14.1518 14.4346 14.0761 14.6173C14.0004 14.8 13.9806 15.0011 14.0192 15.1951C14.0578 15.3891 14.153 15.5673 14.2929 15.7071C14.4327 15.847 14.6109 15.9422 14.8049 15.9808C14.9989 16.0194 15.2 15.9996 15.3827 15.9239C15.5654 15.8482 15.7216 15.72 15.8315 15.5556C15.9414 15.3911 16 15.1978 16 15V10" stroke="#7A7A7A" stroke-width="0.5" stroke-linecap="round" stroke-linejoin="round"/>
<path d="M47.7142 12.3426C48.0152 12.4649 47.9922 12.8986 47.6799 12.9884L46.1037 13.4416L45.3837 14.9154C45.2409 15.2074 44.8097 15.1546 44.7414 14.8369L44.0077 11.4144C43.9946 11.3535 43.9983 11.2903 44.0184 11.2314C44.0386 11.1725 44.0744 11.1203 44.1221 11.0802C44.1697 11.0402 44.2274 11.0139 44.2888 11.0042C44.3503 10.9945 44.4133 11.0017 44.4709 11.0251L47.7142 12.3426Z" stroke="#7A7A7A" stroke-width="0.5"/>
<path d="M49.235 13L50 13.6181L50.765 13L51 13.1903L50 14L49 13.1903L49.235 13Z" fill="#7A7A7A"/>
<path d="M63.235 13L64 13.6181L64.765 13L65 13.1903L64 14L63 13.1903L63.235 13Z" fill="#7A7A7A"/>
<path d="M77.235 13L78 13.6181L78.765 13L79 13.1903L78 14L77 13.1903L77.235 13Z" fill="#7A7A7A"/>
<path d="M19.235 13L20 13.6181L20.765 13L21 13.1903L20 14L19 13.1903L19.235 13Z" fill="#7A7A7A"/>
<path d="M96.338 15V11.592H95.09V10.71H98.66V11.592H97.418V15H96.338Z" fill="#7A7A7A"/>
<path d="M61.6667 12.75V12.1667H60.5V11H59.9167V12.1667H58.75V11H58.1667V12.1667H57V12.75H58.1667V13.9167H57V14.5H58.1667V15.6667H58.75V14.5H59.9167V15.6667H60.5V14.5H61.6667V13.9167H60.5V12.75H61.6667ZM59.9167 13.9167H58.75V12.75H59.9167V13.9167Z" fill="#7A7A7A"/>
<path d="M71 11V15H76V11H71ZM75.5 14.5H71.5V11.5H75.5V14.5Z" fill="#7A7A7A"/>
<path d="M105 13L105.667 13.6667L106.333 13L105.667 12.3333L105 13ZM107.667 13L108.333 13.6667L109 13L108.333 12.3333L107.667 13ZM106.333 11.6667L107 12.3333L107.667 11.6667L107 11L106.333 11.6667ZM106.333 14.3333L107 15L107.667 14.3333L107 13.6667L106.333 14.3333Z" stroke="#7A7A7A" stroke-width="0.3" stroke-linecap="round" stroke-linejoin="round"/>
<g clip-path="url(#clip0_838_5260)">
<path d="M115.917 12.3333C115.945 12.3333 115.973 12.3367 116 12.3417V11.75C116 11.6877 116.014 11.6261 116.041 11.5699C116.068 11.5137 116.107 11.4642 116.156 11.4252C116.204 11.3862 116.261 11.3586 116.322 11.3444C116.383 11.3302 116.446 11.3299 116.507 11.3433C116.524 11.2471 116.574 11.16 116.649 11.0973C116.724 11.0345 116.819 11.0001 116.917 11C117.093 11 117.243 11.11 117.305 11.265C117.367 11.2478 117.432 11.2451 117.495 11.2572C117.558 11.2693 117.618 11.2958 117.669 11.3347C117.72 11.3736 117.761 11.4238 117.79 11.4814C117.818 11.539 117.833 11.6024 117.833 11.6667V11.7583C117.894 11.746 117.956 11.7472 118.016 11.762C118.076 11.7768 118.132 11.8048 118.18 11.8439C118.228 11.8829 118.267 11.9322 118.293 11.988C118.32 12.0439 118.333 12.1049 118.333 12.1667V13.5833C118.333 14.365 117.698 15 116.917 15C116.135 15 115.5 14.365 115.5 13.5833V12.75C115.5 12.6395 115.544 12.5335 115.622 12.4554C115.7 12.3772 115.806 12.3333 115.917 12.3333ZM115.833 13.5833C115.833 13.8707 115.947 14.1462 116.151 14.3494C116.354 14.5525 116.629 14.6667 116.917 14.6667C117.204 14.6667 117.479 14.5525 117.683 14.3494C117.886 14.1462 118 13.8707 118 13.5833V12.1667C118 12.12 117.963 12.0833 117.917 12.0833C117.87 12.0833 117.833 12.12 117.833 12.1667V13H117.5V11.6667C117.5 11.62 117.463 11.5833 117.417 11.5833C117.37 11.5833 117.333 11.62 117.333 11.6667V12.8333H117V11.4167C117 11.37 116.963 11.3333 116.917 11.3333C116.87 11.3333 116.833 11.37 116.833 11.4167V12.8333H116.5V11.75C116.5 11.7033 116.463 11.6667 116.417 11.6667C116.37 11.6667 116.333 11.7033 116.333 11.75V13.2367C116.628 13.365 116.833 13.6583 116.833 14H116.5C116.5 13.7233 116.277 13.5 116 13.5V12.75C116 12.7033 115.963 12.6667 115.917 12.6667C115.87 12.6667 115.833 12.7033 115.833 12.75V13.5833Z" fill="#7A7A7A"/>
</g>
<path d="M128 15C129.105 15 130 14.1046 130 13C130 11.8954 129.105 11 128 11C126.895 11 126 11.8954 126 13C126 13.3642 126.097 13.706 126.268 14L126.1 14.9L127 14.7324C127.304 14.9082 127.649 15.0005 128 15Z" stroke="#7A7A7A" stroke-width="0.5" stroke-linecap="round" stroke-linejoin="round"/>
<path d="M88.3503 14.8847C88.1957 15.0389 87.9261 15.0383 87.7727 14.8837L87.4083 14.5176L86.9578 14.0666H86.0211C85.9792 14.0666 85.9383 14.0537 85.904 14.0296C85.8697 14.0056 85.8436 13.9715 85.8293 13.9321L85.0123 11.6832C84.9852 11.6086 85.0037 11.525 85.0597 11.4688L85.4682 11.0599C85.4957 11.0323 85.5304 11.0132 85.5684 11.0048C85.6064 10.9964 85.6459 10.9991 85.6825 11.0125L87.9291 11.8302C87.9685 11.8445 88.0026 11.8706 88.0266 11.9049C88.0507 11.9393 88.0636 11.9802 88.0635 12.0222V12.9597L88.5143 13.4109L88.5145 13.4111L88.8805 13.7785C88.9577 13.8558 89.0002 13.9586 89 14.0678C89 14.1772 88.9573 14.28 88.8799 14.3571L88.3503 14.8847ZM87.7149 13.1889C87.6959 13.17 87.6808 13.1474 87.6705 13.1226C87.6603 13.0978 87.655 13.0712 87.655 13.0444V12.1653L85.766 11.4778L86.72 12.4327C86.7253 12.4325 86.7306 12.4311 86.7359 12.4311C86.7965 12.4311 86.8558 12.449 86.9062 12.4827C86.9565 12.5164 86.9958 12.5643 87.019 12.6204C87.0422 12.6764 87.0482 12.7381 87.0364 12.7975C87.0246 12.857 86.9954 12.9117 86.9526 12.9546C86.9097 12.9974 86.8551 13.0267 86.7957 13.0385C86.7363 13.0503 86.6747 13.0442 86.6187 13.021C86.5627 12.9978 86.5149 12.9585 86.4812 12.9081C86.4475 12.8577 86.4296 12.7984 86.4296 12.7377C86.4296 12.7324 86.431 12.7271 86.4312 12.7218L85.4772 11.7668L86.1641 13.6577H87.0423C87.0966 13.6577 87.1485 13.6792 87.1867 13.7176L87.5529 14.0842L88.0811 13.5555L87.7149 13.1889ZM88.3697 13.8448L87.8415 14.3734L88.0619 14.5951L88.5915 14.0674L88.3697 13.8448Z" fill="#7A7A7A"/>
<circle cx="89.5" cy="114.5" r="2.5" fill="#7B56E1"/>
<circle cx="104.5" cy="114.5" r="2.5" fill="#8D3290"/>
<circle cx="97.5" cy="114.5" r="2.5" fill="#602562"/>
<path d="M119.489 63.9419C118.799 64.2098 118.852 65.1602 119.567 65.3568L123.179 66.35L124.829 69.5792C125.156 70.219 126.145 70.1034 126.301 69.4072L127.982 61.9079C128.012 61.7746 128.004 61.636 127.958 61.507C127.912 61.378 127.829 61.2635 127.72 61.1758C127.611 61.0881 127.479 61.0305 127.338 61.0092C127.197 60.9879 127.053 61.0038 126.921 61.055L119.489 63.9419Z" fill="#773FB2"/>
<mask id="path-32-inside-6_838_5260" fill="white">
<path d="M52 65.5C52 62.4624 54.4624 60 57.5 60H104.5C107.538 60 110 62.4624 110 65.5C110 68.5376 107.538 71 104.5 71H57.5C54.4624 71 52 68.5376 52 65.5Z"/>
</mask>
<path d="M52 65.5C52 62.4624 54.4624 60 57.5 60H104.5C107.538 60 110 62.4624 110 65.5C110 68.5376 107.538 71 104.5 71H57.5C54.4624 71 52 68.5376 52 65.5Z" fill="#1F1F1F"/>
<path d="M57.5 61H104.5V59H57.5V61ZM104.5 70H57.5V72H104.5V70ZM57.5 70C55.0147 70 53 67.9853 53 65.5H51C51 69.0899 53.9101 72 57.5 72V70ZM109 65.5C109 67.9853 106.985 70 104.5 70V72C108.09 72 111 69.0899 111 65.5H109ZM104.5 61C106.985 61 109 63.0147 109 65.5H111C111 61.9101 108.09 59 104.5 59V61ZM57.5 59C53.9101 59 51 61.9101 51 65.5H53C53 63.0147 55.0147 61 57.5 61V59Z" fill="#282828" mask="url(#path-32-inside-6_838_5260)"/>
<path d="M65.36 68V63.71H68.612V64.592H66.44V65.354H68.312V66.236H66.44V67.118H68.648V68H65.36ZM70.1673 68.06C69.4953 68.06 69.2073 67.754 69.2073 67.004V65.648H68.7813V64.928H69.2073V64.07H70.1673V64.928H70.7013V65.648H70.1673V66.98C70.1673 67.31 70.2933 67.34 70.4793 67.34C70.5693 67.34 70.6233 67.334 70.7373 67.316V67.994C70.5333 68.042 70.3593 68.06 70.1673 68.06ZM73.1687 66.23C73.1687 65.768 73.0067 65.612 72.6887 65.612C72.3227 65.612 72.1127 65.798 72.1127 66.224V68H71.1527V63.71H72.1127V65.372H72.1247C72.2867 65.09 72.5867 64.832 73.1327 64.832C73.7267 64.832 74.1287 65.222 74.1287 65.924V68H73.1687V66.23ZM76.103 68.102C75.107 68.102 74.507 67.424 74.507 66.464C74.507 65.564 75.071 64.826 76.103 64.826C77.147 64.826 77.675 65.444 77.675 66.578V66.722H75.467C75.467 67.148 75.767 67.382 76.127 67.382C76.469 67.382 76.613 67.226 76.673 67.07H77.651C77.477 67.694 76.967 68.102 76.103 68.102ZM75.473 66.128H76.709C76.709 65.732 76.475 65.522 76.103 65.522C75.737 65.522 75.497 65.732 75.473 66.128ZM79.0385 66.572V68H78.0785V64.928H79.0385V65.432H79.0505C79.2005 65.108 79.4645 64.904 79.8005 64.904C79.8845 64.904 79.9565 64.904 80.0645 64.928V65.768C79.9865 65.756 79.9325 65.75 79.8665 65.75C79.4345 65.75 79.0385 66.02 79.0385 66.572ZM82.129 68.096C81.007 68.096 80.161 67.526 80.161 66.542H81.253C81.253 67.04 81.631 67.226 82.117 67.226C82.519 67.226 82.723 67.064 82.723 66.842C82.723 66.476 82.297 66.38 81.703 66.2C80.959 65.972 80.293 65.684 80.293 64.916C80.293 63.98 81.025 63.614 81.949 63.614C82.951 63.614 83.737 64.142 83.767 65.012H82.675C82.627 64.682 82.363 64.484 81.949 64.484C81.625 64.484 81.397 64.592 81.397 64.838C81.397 65.126 81.637 65.222 82.183 65.384C82.993 65.624 83.827 65.852 83.827 66.74C83.827 67.562 83.203 68.096 82.129 68.096ZM85.3841 68.06C84.7121 68.06 84.4241 67.754 84.4241 67.004V65.648H83.9981V64.928H84.4241V64.07H85.3841V64.928H85.9181V65.648H85.3841V66.98C85.3841 67.31 85.5101 67.34 85.6961 67.34C85.7861 67.34 85.8401 67.334 85.9541 67.316V67.994C85.7501 68.042 85.5761 68.06 85.3841 68.06ZM87.3475 68.096C86.7535 68.096 86.3515 67.706 86.3515 67.004V64.928H87.3115V66.698C87.3115 67.16 87.4735 67.316 87.7915 67.316C88.1575 67.316 88.3675 67.13 88.3675 66.704V64.928H89.3275V68H88.3675V67.556H88.3555C88.1935 67.838 87.8935 68.096 87.3475 68.096ZM91.0678 68.096C90.2518 68.096 89.7298 67.472 89.7298 66.464C89.7298 65.456 90.2518 64.832 91.0678 64.832C91.5118 64.832 91.8358 65.072 91.9558 65.234H91.9678V63.71H92.9278V68H91.9678V67.694H91.9558C91.8358 67.856 91.5118 68.096 91.0678 68.096ZM90.7138 66.464C90.7138 67.064 90.9418 67.376 91.3318 67.376C91.7218 67.376 91.9498 67.064 91.9498 66.464C91.9498 65.864 91.7218 65.552 91.3318 65.552C90.9418 65.552 90.7138 65.864 90.7138 66.464ZM93.4535 68V64.928H94.4135V68H93.4535ZM93.4535 64.562V63.71H94.4135V64.562H93.4535ZM96.4417 68.102C95.4277 68.102 94.8097 67.442 94.8097 66.47C94.8097 65.504 95.4277 64.826 96.4597 64.826C97.4737 64.826 98.0917 65.486 98.0917 66.452C98.0917 67.424 97.4737 68.102 96.4417 68.102ZM95.7817 66.464C95.7817 67.058 96.0217 67.382 96.4537 67.382C96.8797 67.382 97.1197 67.058 97.1197 66.464C97.1197 65.87 96.8797 65.546 96.4537 65.546C96.0217 65.546 95.7817 65.87 95.7817 66.464Z" fill="#773FB2"/>
<defs>
<clipPath id="clip0_838_5260">
<rect width="4" height="4" fill="white" transform="matrix(-1 0 0 1 119 11)"/>
</clipPath>
</defs>
</svg>
