<svg width="9" height="11" viewBox="0 0 9 11" fill="none" xmlns="http://www.w3.org/2000/svg">
<path d="M2.1161 10.9686C2.02999 10.9346 1.95844 10.8749 1.91272 10.7988C1.86701 10.7227 1.84974 10.6345 1.86364 10.5482L2.62944 5.89292H0.597125C0.532694 5.89454 0.468727 5.88232 0.410158 5.8572C0.351589 5.83208 0.299984 5.79473 0.259325 5.74804C0.218665 5.70134 0.190038 5.64655 0.175653 5.58789C0.161268 5.52923 0.161508 5.46827 0.176356 5.40971L1.43866 0.302637C1.46088 0.214744 1.51484 0.136679 1.59148 0.081584C1.66812 0.0264887 1.76274 -0.00227303 1.85943 0.00014041H6.06712C6.12998 -5.91479e-05 6.19209 0.0128938 6.24889 0.0380476C6.30568 0.0632014 6.35572 0.0999167 6.39532 0.145496C6.43549 0.19159 6.46392 0.245589 6.4785 0.303429C6.49308 0.361269 6.49341 0.421442 6.47948 0.47942L5.75155 3.53581H7.7502C7.82906 3.53566 7.90638 3.55621 7.97334 3.59511C8.04029 3.63401 8.09419 3.68969 8.12889 3.75581C8.15904 3.81927 8.17065 3.88905 8.16252 3.95806C8.15439 4.02707 8.12681 4.09284 8.08261 4.14866L2.61261 10.8271C2.57564 10.8783 2.52628 10.9206 2.46853 10.9507C2.41077 10.9807 2.34626 10.9976 2.2802 11C2.2239 10.999 2.16827 10.9884 2.1161 10.9686ZM4.69962 4.32151L5.54116 0.785845H2.19605L1.12729 5.10722H3.61404L2.94502 9.14574L6.90866 4.32151H4.69962Z" fill="#5E43A3"/>
<path d="M4.69962 4.32151L5.54116 0.785845H2.19605L1.12729 5.10722H3.61404L2.94502 9.14574L6.90866 4.32151H4.69962Z" fill="#5E43A3"/>
</svg>
