<svg width="206" height="82" viewBox="0 0 206 82" fill="none" xmlns="http://www.w3.org/2000/svg">
<path d="M3 34.5C5.52165 20 31.6642 6.88347 49.5467 5.24429C78.693 2.57264 111.063 1.39123 138.275 6.88346C165.411 12.3603 187.031 21.8095 194.431 32.4727C200.503 41.2229 206.361 51.344 201.597 60.3497C198.605 66.0046 188.819 70.976 175.669 74.3511C159.882 78.4023 138.233 79.1184 119.253 79.371C104.567 79.5663 89.7718 79.2628 75.4096 78.1416C59.1201 76.8698 43.3829 75.0596 31.6642 70.7197C20.6427 66.6382 15.0675 61.2128 12.4784 55.7511C9.88921 50.2894 7.5 34.5 19 26.5" stroke="#773FB2" stroke-width="5" stroke-linecap="round"/>
</svg>
