<svg width="67" height="126" viewBox="0 0 67 126" fill="none" xmlns="http://www.w3.org/2000/svg">
<g clip-path="url(#clip0_1107_83)">
<path d="M66.7071 118.707C67.0976 118.317 67.0976 117.683 66.7071 117.293L60.3431 110.929C59.9526 110.538 59.3195 110.538 58.9289 110.929C58.5384 111.319 58.5384 111.953 58.9289 112.343L64.5858 118L58.9289 123.657C58.5384 124.047 58.5384 124.681 58.9289 125.071C59.3195 125.462 59.9526 125.462 60.3431 125.071L66.7071 118.707ZM17 119H66V117H17V119Z" fill="#F1E7DF"/>
<path d="M16 119V0" stroke="#F1E7DF" stroke-width="2"/>
<path d="M11.192 98.824C11.192 101.068 10.052 102.76 8.084 102.76V100.576C9.08 100.576 9.452 99.82 9.452 98.848C9.452 98.044 9.128 97.636 8.684 97.636C7.952 97.636 7.76 98.488 7.4 99.676C6.944 101.164 6.368 102.496 4.832 102.496C2.96 102.496 2.228 101.032 2.228 99.184C2.228 97.18 3.284 95.608 5.024 95.548V97.732C4.364 97.828 3.968 98.356 3.968 99.184C3.968 99.832 4.184 100.288 4.676 100.288C5.252 100.288 5.444 99.808 5.768 98.716C6.248 97.096 6.704 95.428 8.48 95.428C10.124 95.428 11.192 96.676 11.192 98.824ZM11.192 90.8773C11.192 93.4693 10.04 94.4653 7.904 94.4653H2.42L2.42 92.3053H7.904C9.02 92.3053 9.428 91.8253 9.428 90.8773C9.428 89.9293 9.02 89.4493 7.904 89.4493H2.42V87.2893H7.904C10.04 87.2893 11.192 88.2853 11.192 90.8773ZM11 85.9206H2.42L2.42 81.8766C2.42 79.9686 3.308 78.8166 4.868 78.8166C6.068 78.8166 6.776 79.4886 7.016 80.5566H7.04C7.412 78.4086 10.736 79.1886 10.88 78.6966H11V80.9406C10.64 81.3606 8.012 80.5806 8.012 82.4166V83.7606H11L11 85.9206ZM6.248 83.7606L6.248 82.2966C6.248 81.4326 5.936 80.9766 5.216 80.9766C4.496 80.9766 4.184 81.4326 4.184 82.2966L4.184 83.7606H6.248ZM11 75.6978L2.42 78.5538L2.42 76.1898L8.432 74.5698V74.5458L2.42 72.9138L2.42 70.6338L11 73.4178L11 75.6978ZM11.192 66.2943C11.192 69.0183 9.296 70.5423 6.704 70.5423C4.124 70.5423 2.228 69.0183 2.228 66.2943C2.228 63.5943 4.124 62.0463 6.704 62.0463C9.296 62.0463 11.192 63.5943 11.192 66.2943ZM6.704 68.3343C8.204 68.3343 9.428 67.8663 9.428 66.2943C9.428 64.7343 8.204 64.2543 6.704 64.2543C5.216 64.2543 3.992 64.7343 3.992 66.2943C3.992 67.8663 5.216 68.3343 6.704 68.3343ZM11 60.9714H2.42V58.8114H9.236V54.9954H11V60.9714ZM11 54.0925H2.42L2.42 47.5885H4.184L4.184 51.9325H5.708L5.708 48.1885H7.472L7.472 51.9325H9.236L9.236 47.5165H11L11 54.0925ZM11 46.8013H9.236L4.208 42.8773H4.184V46.5613H2.42L2.42 40.2373H4.184L9.212 44.1613H9.236V40.1173H11V46.8013ZM8.792 39.2739H7.148L7.148 36.0099H8.792V39.2739ZM11 34.8152H2.42L2.42 32.1752L7.892 30.4112V30.3872L2.42 28.6232L2.42 25.9832H11V28.0232H5.66V28.0472L11 29.6432V31.1552L5.66 32.7512V32.7752H11V34.8152ZM11.192 20.6498C11.192 23.3738 9.296 24.8978 6.704 24.8978C4.124 24.8978 2.228 23.3738 2.228 20.6498C2.228 17.9498 4.124 16.4018 6.704 16.4018C9.296 16.4018 11.192 17.9498 11.192 20.6498ZM6.704 22.6898C8.204 22.6898 9.428 22.2218 9.428 20.6498C9.428 19.0898 8.204 18.6098 6.704 18.6098C5.216 18.6098 3.992 19.0898 3.992 20.6498C3.992 22.2218 5.216 22.6898 6.704 22.6898ZM11 15.3269H2.42L2.42 13.1669H11V15.3269Z" fill="#F1E7DF"/>
</g>
<defs>
<clipPath id="clip0_1107_83">
<rect width="67" height="126" fill="white"/>
</clipPath>
</defs>
</svg>
