<svg width="67" height="126" viewBox="0 0 67 126" fill="none" xmlns="http://www.w3.org/2000/svg">
<path d="M66.7071 118.707C67.0976 118.317 67.0976 117.683 66.7071 117.293L60.3431 110.929C59.9526 110.538 59.3195 110.538 58.9289 110.929C58.5384 111.319 58.5384 111.953 58.9289 112.343L64.5858 118L58.9289 123.657C58.5384 124.047 58.5384 124.681 58.9289 125.071C59.3195 125.462 59.9526 125.462 60.3431 125.071L66.7071 118.707ZM17 119L66 119V117L17 117V119Z" fill="#F1E7DF"/>
<line x1="16" y1="119" x2="16" stroke="#F1E7DF" stroke-width="2"/>
<path d="M11 80.28H2.42L2.42 78.12H5.78L5.78 75.18H2.42L2.42 73.02H11V75.18H7.544L7.544 78.12H11V80.28ZM11.192 67.6967C11.192 70.4207 9.296 71.9447 6.704 71.9447C4.124 71.9447 2.228 70.4207 2.228 67.6967C2.228 64.9967 4.124 63.4487 6.704 63.4487C9.296 63.4487 11.192 64.9967 11.192 67.6967ZM6.704 69.7367C8.204 69.7367 9.428 69.2687 9.428 67.6967C9.428 66.1367 8.204 65.6567 6.704 65.6567C5.216 65.6567 3.992 66.1367 3.992 67.6967C3.992 69.2687 5.216 69.7367 6.704 69.7367ZM11 60.5299L2.42 63.3859V61.0219L8.432 59.4019V59.3779L2.42 57.7459V55.4659L11 58.2499V60.5299ZM11 54.6745H2.42L2.42 48.1705H4.184L4.184 52.5145H5.708V48.7705H7.472V52.5145H9.236V48.0985H11L11 54.6745ZM11 46.9753H2.42L2.42 42.9313C2.42 41.0233 3.308 39.8713 4.868 39.8713C6.068 39.8713 6.776 40.5433 7.016 41.6113H7.04C7.412 39.4633 10.736 40.2433 10.88 39.7513H11V41.9953C10.64 42.4153 8.012 41.6353 8.012 43.4713V44.8153H11V46.9753ZM6.248 44.8153V43.3513C6.248 42.4873 5.936 42.0313 5.216 42.0313C4.496 42.0313 4.184 42.4873 4.184 43.3513V44.8153H6.248ZM11 36.4284H2.42V33.7884L7.892 32.0244V32.0004L2.42 30.2364V27.5964H11V29.6364H5.66V29.6604L11 31.2564V32.7684L5.66 34.3644V34.3884H11L11 36.4284ZM11 26.1511H2.42L2.42 19.6471H4.184L4.184 23.9911H5.708L5.708 20.2471H7.472L7.472 23.9911H9.236V19.5751H11V26.1511Z" fill="#F1E7DF"/>
</svg>
