<svg width="112" height="112" viewBox="0 0 112 112" fill="none" xmlns="http://www.w3.org/2000/svg">
<path d="M0 111.758V69.125L15.455 85.106L44.683 55.879L15.455 26.651L0 42.633V0.007L0.375 0L42.626 0.007L26.645 15.462L55.872 44.689L85.1 15.462L69.118 0.007H111.745L111.751 0.382L111.745 42.633L96.29 26.651L67.062 55.879L96.29 85.106L111.745 69.125L111.751 111.752H69.118L85.1 96.3L55.872 67.069L26.645 96.3L42.626 111.755L0 111.758ZM70.972 111L111.001 111.006L111 70.979L96.3 86.179L96.029 85.909L66 55.879L68.7 53.179L96.3 25.579L111 40.779V0.751L70.972 0.757L86.172 15.457L85.902 15.728L55.872 45.75L25.572 15.45L40.772 0.757L0.744 0.75L0.75 40.779L15.45 25.579L15.721 25.849L45.743 55.879L43.043 58.579L15.443 86.179L0.75 70.979L0.743 111.008L40.772 111L25.572 96.305L25.842 96.034L55.872 66.009L58.572 68.709L86.172 96.309L70.972 111Z" fill="#F1E7DF"/>
</svg>
