<svg width="656" height="664" viewBox="0 0 656 664" fill="none" xmlns="http://www.w3.org/2000/svg">
<path d="M594.5 0.5L345.224 3.05905L336.5 240.5C336.5 240.5 312.62 90.7089 282.5 50C272.907 37.0341 257.5 22 257.5 22C245 17.67 237.017 -2.2279 4.00022 5L3.81513 73.1359V323.277H257.5C257.5 323.277 97.209 346.88 56.5002 377C43.5342 386.593 28.5 407 28.5 407C24.17 419.5 -5.22768 429.484 2.00024 662.5L66.0002 661.5L316.777 659.941L336.5 407C336.5 407 358.38 562.791 388.5 603.5C398.093 616.466 416 638.17 428.5 642.5C428.5 642.5 421.484 669.728 654.5 662.5L653.991 661.98L652.685 588.865V338.724L407 323.277C407 323.277 554.291 306.12 595 276C607.966 266.407 630.5 240.5 630.5 240.5C630.5 240.5 661.728 233.516 654.5 0.5H594.5Z" fill="#5E43A3"/>
</svg>
