<svg width="96" height="97" viewBox="0 0 96 97" fill="none" xmlns="http://www.w3.org/2000/svg">
<path d="M15.917 84.8126L18.6326 70.0825C18.6782 69.8348 18.6746 69.5802 18.622 69.3338C18.5693 69.0874 18.4685 68.8541 18.3258 68.6474C18.183 68.4405 18.001 68.2645 17.7902 68.1296C17.5795 67.9946 17.3444 67.9033 17.0984 67.8609L2.47129 65.3912C2.13592 65.3343 1.82211 65.1867 1.56319 64.9639C1.30428 64.7411 1.10992 64.4517 1.0008 64.1263C0.891703 63.801 0.871889 63.4518 0.943503 63.1159C1.0151 62.7801 1.17544 62.4702 1.40748 62.2189L11.6362 51.1729C11.8063 50.9897 11.9387 50.7743 12.0257 50.5391C12.1127 50.3039 12.1526 50.0536 12.1431 49.8028C12.1336 49.5518 12.0748 49.3053 11.9702 49.0776C11.8657 48.8498 11.7174 48.6452 11.5339 48.4758L0.609653 38.4061C0.360683 38.1754 0.177798 37.8811 0.0802039 37.5544C-0.0173922 37.2276 -0.0260746 36.8803 0.0550121 36.549C0.136099 36.2175 0.30399 35.9144 0.541063 35.6711C0.778151 35.428 1.07564 35.2537 1.40236 35.1666L15.9527 31.3382C16.4333 31.2106 16.8445 30.8962 17.0964 30.4636C17.3485 30.0309 17.4208 29.5152 17.2977 29.0288L13.5899 14.5003C13.5067 14.1708 13.5126 13.8247 13.6069 13.4983C13.7011 13.1718 13.8803 12.8768 14.1258 12.6441C14.3713 12.4114 14.6742 12.2495 15.0027 12.1752C15.3312 12.1009 15.6734 12.1171 15.9937 12.2219L30.1912 16.8718C30.6625 17.0257 31.1751 16.9857 31.6174 16.7603C32.0597 16.5349 32.3963 16.1424 32.554 15.668L37.2898 1.29969C37.3959 0.976362 37.5863 0.687873 37.8408 0.464531C38.0953 0.241187 38.4048 0.0912351 38.7365 0.0304436C39.0683 -0.0303478 39.4101 0.000263305 39.7262 0.119055C40.0421 0.237848 40.3206 0.440437 40.5323 0.705531L49.8405 12.3252C49.9948 12.5204 50.1861 12.6826 50.4033 12.8025C50.6203 12.9224 50.8587 12.9975 51.1048 13.0234C51.3508 13.0494 51.5994 13.0257 51.8363 12.9537C52.0732 12.8818 52.2935 12.7629 52.4846 12.6042L64.13 3.02532C64.3927 2.80469 64.7102 2.66069 65.048 2.60885C65.3857 2.55701 65.7311 2.59929 66.0469 2.73114C66.3626 2.86298 66.6367 3.07938 66.8397 3.35703C67.0426 3.63466 67.1667 3.96301 67.1987 4.30665L68.7329 19.1606C68.7583 19.4112 68.8329 19.6541 68.9522 19.8752C69.0716 20.0964 69.2333 20.2912 69.4281 20.4485C69.6227 20.6058 69.8465 20.7224 70.0863 20.7913C70.3262 20.8603 70.5771 20.8802 70.8246 20.85L85.6205 19.0676C85.9584 19.0264 86.3009 19.0787 86.6117 19.219C86.9222 19.3592 87.1894 19.5823 87.3843 19.864C87.5791 20.1459 87.6946 20.4759 87.7182 20.8188C87.7417 21.1619 87.6724 21.5048 87.5179 21.8111L80.7874 35.2442C80.6724 35.4698 80.6031 35.7164 80.5838 35.9695C80.5645 36.2226 80.5955 36.4771 80.6751 36.7179C80.7547 36.9586 80.8813 37.1808 81.0472 37.3714C81.2132 37.5619 81.4153 37.7171 81.6415 37.8276L94.9388 44.3529C95.2444 44.5019 95.5042 44.7317 95.6908 45.0179C95.8773 45.3041 95.9836 45.636 95.9982 45.9785C96.013 46.3208 95.9355 46.6608 95.7743 46.9624C95.6129 47.2638 95.3737 47.5155 95.0821 47.6906L82.1837 55.4404C81.9708 55.568 81.7851 55.737 81.6371 55.9374C81.4891 56.1379 81.3818 56.366 81.3215 56.6085C81.2612 56.8509 81.2489 57.1031 81.2853 57.3505C81.3218 57.5978 81.4065 57.8354 81.5341 58.0496L89.0881 70.8575C89.2612 71.1496 89.3536 71.4832 89.3556 71.8237C89.3576 72.1641 89.269 72.4987 89.0991 72.7928C88.9294 73.0869 88.6844 73.3295 88.3901 73.4952C88.0958 73.661 87.7628 73.744 87.426 73.7353L72.4408 73.3065C71.9456 73.2926 71.465 73.477 71.1038 73.8196C70.7426 74.1623 70.53 74.6353 70.5127 75.1355L69.9757 90.2013C69.9644 90.5414 69.8629 90.8721 69.6815 91.1588C69.5002 91.4457 69.2457 91.6779 68.945 91.831C68.6443 91.9843 68.3082 92.053 67.9721 92.0298C67.6361 92.0067 67.3123 91.8927 67.035 91.6996L54.8218 83.216C54.4117 82.9328 53.9073 82.8249 53.4186 82.9158C52.9301 83.0069 52.4969 83.2893 52.2136 83.7017L43.6675 96.1841C43.4747 96.4643 43.2107 96.6868 42.9035 96.8285C42.5962 96.97 42.2569 97.0256 41.9211 96.9891C41.5853 96.9526 41.2655 96.8256 40.995 96.6211C40.7245 96.4169 40.5136 96.1428 40.384 95.8278L34.7582 82.0329C34.6647 81.8 34.5262 81.5883 34.351 81.4098C34.1756 81.2316 33.967 81.0902 33.7371 80.9941C33.5073 80.898 33.2607 80.8489 33.012 80.8498C32.7632 80.8507 32.5171 80.9017 32.2879 80.9996L18.5098 86.905C18.197 87.0426 17.8527 87.0914 17.5143 87.046C17.1759 87.0007 16.8562 86.8631 16.5895 86.6478C16.3228 86.4327 16.1192 86.1479 16.0007 85.8246C15.8822 85.5011 15.8531 85.1513 15.917 84.8126Z" fill="#5E43A3"/>
<path d="M23.78 54V44.705H28.291C30.228 44.705 31.437 45.719 31.437 47.669C31.437 49.619 30.228 50.633 28.291 50.633H26.12V54H23.78ZM26.12 48.722H27.745C28.551 48.722 29.045 48.449 29.045 47.669C29.045 46.889 28.551 46.616 27.745 46.616H26.12V48.722ZM35.1247 54.221C32.9277 54.221 31.5887 52.791 31.5887 50.685C31.5887 48.592 32.9277 47.123 35.1637 47.123C37.3607 47.123 38.6997 48.553 38.6997 50.646C38.6997 52.752 37.3607 54.221 35.1247 54.221ZM33.6947 50.672C33.6947 51.959 34.2147 52.661 35.1507 52.661C36.0737 52.661 36.5937 51.959 36.5937 50.672C36.5937 49.385 36.0737 48.683 35.1507 48.683C34.2147 48.683 33.6947 49.385 33.6947 50.672ZM43.5854 54.208C42.6234 54.208 41.9214 53.688 41.6614 53.337H41.6354V56.301H39.5554V47.344H41.6354V48.007H41.6614C41.9214 47.656 42.6234 47.136 43.5854 47.136C45.3534 47.136 46.4844 48.488 46.4844 50.672C46.4844 52.856 45.3534 54.208 43.5854 54.208ZM41.6744 50.672C41.6744 51.972 42.1684 52.648 43.0134 52.648C43.8584 52.648 44.3524 51.972 44.3524 50.672C44.3524 49.372 43.8584 48.696 43.0134 48.696C42.1684 48.696 41.6744 49.372 41.6744 50.672ZM49.482 54.208C48.195 54.208 47.324 53.363 47.324 51.842V47.344H49.404V51.179C49.404 52.18 49.755 52.518 50.444 52.518C51.237 52.518 51.692 52.115 51.692 51.192V47.344H53.772V54H51.692V53.038H51.666C51.315 53.649 50.665 54.208 49.482 54.208ZM54.9167 54V44.705H56.9967V54H54.9167ZM59.9873 54.208C58.6873 54.208 57.8683 53.441 57.8683 52.258C57.8683 50.88 58.9993 50.347 60.4163 50.048C61.1443 49.892 62.1713 49.788 62.1713 49.125C62.1713 48.761 61.8853 48.527 61.2873 48.527C60.5203 48.527 60.1693 48.839 60.1043 49.489H58.1283C58.1933 48.215 59.1293 47.123 61.3783 47.123C63.1853 47.123 64.1863 47.851 64.1863 49.892V52.466C64.1863 52.817 64.2253 52.973 64.4333 52.973C64.4853 52.973 64.5243 52.973 64.6023 52.96V53.948C64.1863 54.026 63.7573 54.065 63.4583 54.065C62.6263 54.065 62.3143 53.753 62.2103 53.194H62.1843C61.7163 53.779 60.9493 54.208 59.9873 54.208ZM60.0003 52.037C60.0003 52.544 60.3253 52.778 60.8583 52.778C61.6903 52.778 62.1713 52.076 62.1713 51.309V50.75C61.8983 50.854 61.5863 50.932 61.0403 51.062C60.2733 51.244 60.0003 51.569 60.0003 52.037ZM67.5592 50.906V54H65.4792V47.344H67.5592V48.436H67.5852C67.9102 47.734 68.4822 47.292 69.2102 47.292C69.3922 47.292 69.5482 47.292 69.7822 47.344V49.164C69.6132 49.138 69.4962 49.125 69.3532 49.125C68.4172 49.125 67.5592 49.71 67.5592 50.906Z" fill="white"/>
</svg>
