<svg width="842" height="844" viewBox="0 0 842 844" fill="none" xmlns="http://www.w3.org/2000/svg">
<path d="M140.385 737.884L164.177 609.73C164.576 607.575 164.544 605.359 164.084 603.216C163.622 601.073 162.739 599.043 161.489 597.244C160.238 595.444 158.643 593.913 156.796 592.739C154.95 591.565 152.89 590.77 150.735 590.401L22.5858 568.915C19.6476 568.42 16.8983 567.135 14.6299 565.197C12.3615 563.259 10.6587 560.741 9.70276 557.91C8.74693 555.079 8.57333 552.041 9.20075 549.119C9.82803 546.197 11.2328 543.501 13.2657 541.316L102.881 445.213C104.37 443.619 105.53 441.745 106.293 439.699C107.055 437.652 107.405 435.474 107.321 433.293C107.238 431.109 106.723 428.965 105.807 426.984C104.891 425.002 103.591 423.222 101.984 421.748L6.27586 334.14C4.09461 332.132 2.49234 329.572 1.63731 326.73C0.782257 323.886 0.706189 320.865 1.4166 317.982C2.12701 315.099 3.59792 312.462 5.67493 310.345C7.75208 308.23 10.3584 306.713 13.2209 305.956L140.697 272.648C144.908 271.538 148.511 268.802 150.718 265.039C152.926 261.274 153.56 256.788 152.482 252.555L119.997 126.155C119.268 123.288 119.32 120.278 120.146 117.437C120.971 114.597 122.542 112.031 124.692 110.006C126.843 107.981 129.496 106.573 132.375 105.927C135.253 105.28 138.251 105.421 141.057 106.332L265.442 146.788C269.572 148.127 274.062 147.778 277.937 145.817C281.813 143.856 284.761 140.442 286.143 136.315L327.634 11.3075C328.563 8.49452 330.232 5.98462 332.461 4.0415C334.691 2.09837 337.403 0.793761 340.309 0.264865C343.215 -0.264031 346.211 0.0022908 348.98 1.0358C351.747 2.06932 354.187 3.83188 356.042 6.13824L437.592 107.231C438.944 108.93 440.62 110.341 442.522 111.384C444.423 112.427 446.512 113.08 448.669 113.306C450.824 113.532 453.002 113.326 455.077 112.7C457.153 112.073 459.083 111.04 460.757 109.659L562.784 26.3208C565.085 24.4013 567.866 23.1485 570.826 22.6974C573.785 22.2464 576.811 22.6142 579.577 23.7614C582.344 24.9084 584.745 26.7912 586.524 29.2067C588.301 31.6221 589.389 34.4789 589.668 37.4686L603.11 166.7C603.332 168.881 603.986 170.994 605.031 172.917C606.077 174.842 607.494 176.537 609.2 177.906C610.906 179.274 612.867 180.289 614.967 180.888C617.069 181.488 619.267 181.661 621.436 181.399L751.064 165.891C754.024 165.533 757.025 165.988 759.747 167.209C762.468 168.428 764.809 170.369 766.517 172.82C768.223 175.272 769.235 178.144 769.442 181.127C769.648 184.112 769.041 187.095 767.687 189.76L708.721 306.631C707.713 308.593 707.106 310.739 706.937 312.941C706.768 315.143 707.039 317.357 707.737 319.452C708.434 321.546 709.543 323.479 710.997 325.138C712.451 326.795 714.221 328.145 716.204 329.106L832.703 385.877C835.38 387.174 837.656 389.174 839.291 391.663C840.924 394.154 841.856 397.041 841.984 400.021C842.113 402.999 841.434 405.957 840.022 408.581C838.608 411.203 836.513 413.393 833.958 414.916L720.953 482.341C719.088 483.451 717.462 484.921 716.165 486.665C714.868 488.409 713.928 490.394 713.4 492.504C712.871 494.613 712.764 496.807 713.083 498.959C713.403 501.11 714.144 503.178 715.262 505.042L781.444 616.473C782.96 619.014 783.77 621.916 783.787 624.878C783.804 627.84 783.028 630.752 781.54 633.31C780.053 635.869 777.907 637.979 775.328 639.421C772.75 640.864 769.833 641.585 766.882 641.509L635.595 637.779C631.256 637.658 627.046 639.262 623.881 642.243C620.717 645.225 618.855 649.34 618.703 653.692L613.998 784.767C613.9 787.726 613.01 790.603 611.421 793.098C609.833 795.594 607.603 797.613 604.968 798.946C602.334 800.28 599.389 800.877 596.444 800.675C593.501 800.474 590.664 799.482 588.234 797.802L481.234 723.994C477.641 721.529 473.221 720.591 468.94 721.382C464.66 722.174 460.864 724.631 458.383 728.219L383.51 836.818C381.82 839.256 379.508 841.192 376.816 842.424C374.124 843.656 371.152 844.139 368.209 843.822C365.267 843.504 362.465 842.399 360.095 840.62C357.726 838.843 355.878 836.459 354.743 833.718L305.454 713.7C304.636 711.674 303.422 709.832 301.887 708.28C300.35 706.729 298.523 705.499 296.508 704.663C294.495 703.827 292.335 703.399 290.156 703.407C287.976 703.415 285.82 703.859 283.812 704.711L163.101 756.089C160.36 757.286 157.343 757.71 154.379 757.315C151.414 756.921 148.613 755.724 146.277 753.851C143.94 751.979 142.157 749.502 141.118 746.689C140.08 743.875 139.826 740.831 140.385 737.884Z" fill="#5E43A3"/>
</svg>
