<svg width="28" height="28" viewBox="0 0 28 28" fill="none" xmlns="http://www.w3.org/2000/svg">
<path d="M19.6534 8.3465C18.9124 7.60188 18.0314 7.01119 17.0612 6.60845C16.0909 6.20571 15.0506 5.99887 14.0001 5.99984V13.9998L8.34675 19.6532C11.4667 22.7732 16.5334 22.7732 19.6667 19.6532C20.4093 18.9104 20.998 18.0286 21.3993 17.058C21.8006 16.0875 22.0065 15.0473 22.0052 13.9971C22.004 12.9468 21.7956 11.9072 21.3921 10.9376C20.9885 9.96796 20.3977 9.08747 19.6534 8.3465ZM14.0001 0.666504C6.64008 0.666504 0.666748 6.63984 0.666748 13.9998C0.666748 21.3598 6.64008 27.3332 14.0001 27.3332C21.3601 27.3332 27.3334 21.3598 27.3334 13.9998C27.3334 6.63984 21.3601 0.666504 14.0001 0.666504ZM14.0001 24.6665C8.10675 24.6665 3.33341 19.8932 3.33341 13.9998C3.33341 8.1065 8.10675 3.33317 14.0001 3.33317C19.8934 3.33317 24.6667 8.1065 24.6667 13.9998C24.6667 19.8932 19.8934 24.6665 14.0001 24.6665Z" fill="#F1E7DF"/>
</svg>
