<svg width="34" height="23" viewBox="0 0 34 23" fill="none" xmlns="http://www.w3.org/2000/svg">
<path d="M24.52 6.71999L21.62 15.86C21.62 15.16 19.62 0 19.62 0C15.02 0 12.58 3.25999 11.3 6.71999L7.76 15.88C7.76 15.22 7.26 6.8 7.26 6.8C7.08925 4.97724 6.25596 3.2804 4.91796 2.03086C3.57996 0.781323 1.83016 0.0658615 0 0.0199966L3.76 22.98C8.56 22.98 11.16 19.72 12.5 16.26L15.5 8.46C15.5 8.78 17.5 22.98 17.5 22.98C19.4628 22.9775 21.3738 22.35 22.956 21.1885C24.5382 20.027 25.7095 18.3918 26.3 16.52L33.1 0C28.3 0 25.78 3.25999 24.5 6.71999H24.52Z" fill="white"/>
</svg>
